# xmcd
#
# Track frame offsets:
#	185
#	12050
#	22420
#	39067
#	49962
#	59437
#	71405
#	93065
#	106655
#	121365
#	133992
#	148232
#	164602
#	180705
#
# Disc length: 2552 seconds
#
# Revision: 0
# Processed by: cddbd v1.5.2PL0 Copyright (c) Steve Scherf et al.
# Submitted via: VUPlayer 2.49
#
DISCID=c309f60e
DTITLE=Mike Festa - Down Under The Blues
DYEAR=1999
DGENRE=Blues
TTITLE0=My Woman Is Great
TTITLE1=Nobody Fools Me
TTITLE2=It's Your Playground
TTITLE3=Rejected
TTITLE4=Wooloomooloo
TTITLE5=You Can't Control
TTITLE6=Love You Honey
TTITLE7=Really Gone (The Most)
TTITLE8=Lightening Strikes Twice
TTITLE9=Get Your Mind Together
TTITLE10=Baby Wants Her Bottle
TTITLE11=Too Cold For Lucinda
TTITLE12=Soul
TTITLE13=Down Under The Blues
EXTD=
EXTT0=
EXTT1=
EXTT2=
EXTT3=
EXTT4=
EXTT5=
EXTT6=
EXTT7=
EXTT8=
EXTT9=
EXTT10=
EXTT11=
EXTT12=
EXTT13=
PLAYORDER=
